<?xml version="1.0" encoding="UTF-8" standalone="no"?>
<!-- Created with Inkscape (http://www.inkscape.org/) -->

<svg
   xmlns:dc="http://purl.org/dc/elements/1.1/"
   xmlns:cc="http://creativecommons.org/ns#"
   xmlns:rdf="http://www.w3.org/1999/02/22-rdf-syntax-ns#"
   xmlns:svg="http://www.w3.org/2000/svg"
   xmlns="http://www.w3.org/2000/svg"
   xmlns:sodipodi="http://sodipodi.sourceforge.net/DTD/sodipodi-0.dtd"
   xmlns:inkscape="http://www.inkscape.org/namespaces/inkscape"
   width="16"
   height="16"
   viewBox="0 0 4.2333332 4.2333335"
   version="1.1"
   id="svg930"
   inkscape:version="0.92.4 5da689c313, 2019-01-14"
   sodipodi:docname="com.github.huluti.Coulr-symbolic.svg">
  <defs
     id="defs924" />
  <sodipodi:namedview
     id="base"
     pagecolor="#ffffff"
     bordercolor="#666666"
     borderopacity="1.0"
     inkscape:pageopacity="0.0"
     inkscape:pageshadow="2"
     inkscape:zoom="31.178136"
     inkscape:cx="9.93631"
     inkscape:cy="6.9887775"
     inkscape:document-units="mm"
     inkscape:current-layer="text14"
     showgrid="false"
     units="px"
     inkscape:window-width="1920"
     inkscape:window-height="995"
     inkscape:window-x="0"
     inkscape:window-y="0"
     inkscape:window-maximized="1"
     inkscape:lockguides="true" />
  <metadata
     id="metadata927">
    <rdf:RDF>
      <cc:Work
         rdf:about="">
        <dc:format>image/svg+xml</dc:format>
        <dc:type
           rdf:resource="http://purl.org/dc/dcmitype/StillImage" />
        <dc:title />
      </cc:Work>
    </rdf:RDF>
  </metadata>
  <g
     inkscape:label="Calque 1"
     inkscape:groupmode="layer"
     id="layer1"
     transform="translate(0,-292.76665)">
    <g
       id="g956"
       transform="matrix(1.1882522,0,0,1.1882522,0.97186935,-55.902231)">
      <g
         aria-label="ImC"
         style="font-style:normal;font-weight:normal;font-size:1.63288379px;line-height:1.25;font-family:sans-serif;letter-spacing:0px;word-spacing:0px;fill:#bebebe;fill-opacity:1;stroke:none;stroke-width:0.22266597"
         id="text821">
        <g
           aria-label="C"
           style="font-style:normal;font-weight:normal;font-size:2.53378224px;line-height:1.25;font-family:sans-serif;letter-spacing:0px;word-spacing:0px;fill:#bebebe;fill-opacity:1;stroke:none;stroke-width:0.01410468"
           id="text14">
          <path
             d="m 1.3796033,295.71559 q 0,0.23311 -0.098818,0.3826 -0.1114864,0.16977 -0.32432411,0.16977 -0.24831066,0 -0.34459438,-0.21284 -0.0658783,-0.14696 -0.0658783,-0.44848 v -0.97804 q 0,-0.13429 0.0734797,-0.26858 0.11148642,-0.20524 0.33699304,-0.20524 0.24070931,0 0.34459441,0.18243 0.083615,0.13936 0.078547,0.37247 0,0.076 -0.00253,0.11655 -0.00253,0.0405 -0.038007,0.0456 -0.035473,0.005 -0.1266891,0.003 -0.1266891,-0.005 -0.1140202,-0.005 -0.045608,0 -0.048142,-0.0431 0,-0.0912 0,-0.17989 -0.015203,-0.13176 -0.0937499,-0.13176 -0.10388507,0 -0.10388507,0.45101 v 0.7196 q 0,0.0709 0.0202703,0.13429 0.0278716,0.0887 0.0836148,0.0887 0.0988175,0 0.0988175,-0.26605 0,-0.0304 0,-0.0709 -0.00253,-0.0431 -0.00253,-0.0507 0,-0.0456 0.035473,-0.0456 0.1596283,0 0.2533782,0.003 0.038007,0 0.038007,0.0431 0.00253,0.0659 0,0.1951 z"
             style="font-style:normal;font-variant:normal;font-weight:normal;font-stretch:normal;font-family:'Headline One';-inkscape-font-specification:'Headline One';fill:#bebebe;fill-opacity:1;stroke-width:0.01410468"
             id="path16" />
        </g>
      </g>
    </g>
  </g>
</svg>
